# xmcd
#
# Track frame offsets:
# 150
# 13813
# 28363
# 40363
# 54895
# 70695
# 84093
# 96873
# 110883
# 126028
# 140785
# 155338
# 169860
# 184358
# 198583
# 208198
# 219535
# 230385
#
# Disc length: 3141 seconds
#
# Revision: 1
# Processed by: cddbd v1.5.1PL2 Copyright (c) Steve Scherf et al.
# Submitted via: inCDius 2.0b9
#
DISCID=0a0c4312
DTITLE=Various Artist - From Where I Stand: The Black Experience in Country Music (Th
DTITLE=e Stringband Era) [CD1]
DYEAR=1900
DGENRE=
TTITLE0=DeFord Bailey - Pan American Blues
TTITLE1=DeFord Bailey - Muscle Shoals Blues
TTITLE2=Taylor's Kentucky Boys - Gray Eagle
TTITLE3=Georgia Yellow Hammers - G Rag
TTITLE4=Andrew and Jim Baxter - K.C. Railroad Blues
TTITLE5=The Dallas String Band - Dallas Rag
TTITLE6=James Cole String Band - Bill Cheatem
TTITLE7=Peg Leg Howell and Eddie Anthony - Turkey Buzzard Blues
TTITLE8=Charlie McCoy and Bo Chatmon - Corrina Corrina
TTITLE9=Mississippi Shelks - Sitting On Top Of The World
TTITLE10=Mississippi Shelks - Yodeling Fiddeling Blues
TTITLE11=Memphis Shelks - In The Jailhouse Now
TTITLE12=Mississippi Mud Stompers - Morning Glory Waltz
TTITLE13=Leadbelly - Midnight Special
TTITLE14=Leadbelly - Rock Island Line
TTITLE15=Nathan Fraizer and Frank Patterson - Eighth Of January
TTITLE16=Murph Gribble, John Lusk, Albert York - Apple Blossom
TTITLE17=DeFord Bailey - Fox Chase
EXTD=1998 Warner Bros.
EXTT0=
EXTT1=
EXTT2=
EXTT3=
EXTT4=
EXTT5=
EXTT6=
EXTT7=
EXTT8=
EXTT9=
EXTT10=
EXTT11=
EXTT12=
EXTT13=
EXTT14=
EXTT15=
EXTT16=
EXTT17=
PLAYORDER=
